TITLE ""
FILE "2Q_k_041-050.mp3" MP3
  TRACK 01 AUDIO
    TITLE "2Q_k_041-050_01"
    INDEX 01 00:00:00
  TRACK 02 AUDIO
    TITLE "2Q_k_041-050_02"
    INDEX 01 00:01:37
  TRACK 03 AUDIO
    TITLE "2Q_k_041-050_03"
    INDEX 01 00:02:11
  TRACK 04 AUDIO
    TITLE "2Q_k_041-050_04"
    INDEX 01 00:04:26
  TRACK 05 AUDIO
    TITLE "2Q_k_041-050_05"
    INDEX 01 00:04:71
  TRACK 06 AUDIO
    TITLE "2Q_k_041-050_06"
    INDEX 01 00:08:41
  TRACK 07 AUDIO
    TITLE "2Q_k_041-050_07"
    INDEX 01 00:12:25
  TRACK 08 AUDIO
    TITLE "2Q_k_041-050_08"
    INDEX 01 00:12:72
  TRACK 09 AUDIO
    TITLE "2Q_k_041-050_09"
    INDEX 01 00:15:04
  TRACK 10 AUDIO
    TITLE "2Q_k_041-050_10"
    INDEX 01 00:15:55
  TRACK 11 AUDIO
    TITLE "2Q_k_041-050_11"
    INDEX 01 00:17:71
  TRACK 12 AUDIO
    TITLE "2Q_k_041-050_12"
    INDEX 01 00:18:45
  TRACK 13 AUDIO
    TITLE "2Q_k_041-050_13"
    INDEX 01 00:21:26
  TRACK 14 AUDIO
    TITLE "2Q_k_041-050_14"
    INDEX 01 00:26:59
  TRACK 15 AUDIO
    TITLE "2Q_k_041-050_15"
    INDEX 01 00:27:31
  TRACK 16 AUDIO
    TITLE "2Q_k_041-050_16"
    INDEX 01 00:29:28
  TRACK 17 AUDIO
    TITLE "2Q_k_041-050_17"
    INDEX 01 00:29:73
  TRACK 18 AUDIO
    TITLE "2Q_k_041-050_18"
    INDEX 01 00:31:42
  TRACK 19 AUDIO
    TITLE "2Q_k_041-050_19"
    INDEX 01 00:32:16
  TRACK 20 AUDIO
    TITLE "2Q_k_041-050_20"
    INDEX 01 00:35:28
  TRACK 21 AUDIO
    TITLE "2Q_k_041-050_21"
    INDEX 01 00:37:66
  TRACK 22 AUDIO
    TITLE "2Q_k_041-050_22"
    INDEX 01 00:40:45
  TRACK 23 AUDIO
    TITLE "2Q_k_041-050_23"
    INDEX 01 00:41:17
  TRACK 24 AUDIO
    TITLE "2Q_k_041-050_24"
    INDEX 01 00:42:60
  TRACK 25 AUDIO
    TITLE "2Q_k_041-050_25"
    INDEX 01 00:43:30
  TRACK 26 AUDIO
    TITLE "2Q_k_041-050_26"
    INDEX 01 00:45:17
  TRACK 27 AUDIO
    TITLE "2Q_k_041-050_27"
    INDEX 01 00:45:64
  TRACK 28 AUDIO
    TITLE "2Q_k_041-050_28"
    INDEX 01 00:47:37
  TRACK 29 AUDIO
    TITLE "2Q_k_041-050_29"
    INDEX 01 00:50:49
  TRACK 30 AUDIO
    TITLE "2Q_k_041-050_30"
    INDEX 01 00:51:19
  TRACK 31 AUDIO
    TITLE "2Q_k_041-050_31"
    INDEX 01 00:54:08
  TRACK 32 AUDIO
    TITLE "2Q_k_041-050_32"
    INDEX 01 00:54:55
  TRACK 33 AUDIO
    TITLE "2Q_k_041-050_33"
    INDEX 01 00:57:22
  TRACK 34 AUDIO
    TITLE "2Q_k_041-050_34"
    INDEX 01 00:57:67
  TRACK 35 AUDIO
    TITLE "2Q_k_041-050_35"
    INDEX 01 01:01:06
  TRACK 36 AUDIO
    TITLE "2Q_k_041-050_36"
    INDEX 01 01:05:61
  TRACK 37 AUDIO
    TITLE "2Q_k_041-050_37"
    INDEX 01 01:06:37
  TRACK 38 AUDIO
    TITLE "2Q_k_041-050_38"
    INDEX 01 01:07:69
  TRACK 39 AUDIO
    TITLE "2Q_k_041-050_39"
    INDEX 01 01:08:43
  TRACK 40 AUDIO
    TITLE "2Q_k_041-050_40"
    INDEX 01 01:10:36
  TRACK 41 AUDIO
    TITLE "2Q_k_041-050_41"
    INDEX 01 01:11:06
  TRACK 42 AUDIO
    TITLE "2Q_k_041-050_42"
    INDEX 01 01:14:03
  TRACK 43 AUDIO
    TITLE "2Q_k_041-050_43"
    INDEX 01 01:17:13
  TRACK 44 AUDIO
    TITLE "2Q_k_041-050_44"
    INDEX 01 01:17:58
  TRACK 45 AUDIO
    TITLE "2Q_k_041-050_45"
    INDEX 01 01:19:22
  TRACK 46 AUDIO
    TITLE "2Q_k_041-050_46"
    INDEX 01 01:19:75
  TRACK 47 AUDIO
    TITLE "2Q_k_041-050_47"
    INDEX 01 01:22:40
  TRACK 48 AUDIO
    TITLE "2Q_k_041-050_48"
    INDEX 01 01:23:12
  TRACK 49 AUDIO
    TITLE "2Q_k_041-050_49"
    INDEX 01 01:26:41
  TRACK 50 AUDIO
    TITLE "2Q_k_041-050_50"
    INDEX 01 01:28:11
  TRACK 51 AUDIO
    TITLE "2Q_k_041-050_51"
    INDEX 01 01:28:66
  TRACK 52 AUDIO
    TITLE "2Q_k_041-050_52"
    INDEX 01 01:30:70
  TRACK 53 AUDIO
    TITLE "2Q_k_041-050_53"
    INDEX 01 01:31:44
  TRACK 54 AUDIO
    TITLE "2Q_k_041-050_54"
    INDEX 01 01:33:45
  TRACK 55 AUDIO
    TITLE "2Q_k_041-050_55"
    INDEX 01 01:34:17
  TRACK 56 AUDIO
    TITLE "2Q_k_041-050_56"
    INDEX 01 01:39:01
  TRACK 57 AUDIO
    TITLE "2Q_k_041-050_57"
    INDEX 01 01:41:60
  TRACK 58 AUDIO
    TITLE "2Q_k_041-050_58"
    INDEX 01 01:42:31
  TRACK 59 AUDIO
    TITLE "2Q_k_041-050_59"
    INDEX 01 01:44:41
  TRACK 60 AUDIO
    TITLE "2Q_k_041-050_60"
    INDEX 01 01:45:11
  TRACK 61 AUDIO
    TITLE "2Q_k_041-050_61"
    INDEX 01 01:47:26
  TRACK 62 AUDIO
    TITLE "2Q_k_041-050_62"
    INDEX 01 01:47:69
  TRACK 63 AUDIO
    TITLE "2Q_k_041-050_63"
    INDEX 01 01:52:01
  TRACK 64 AUDIO
    TITLE "2Q_k_041-050_64"
    INDEX 01 01:54:57
  TRACK 65 AUDIO
    TITLE "2Q_k_041-050_65"
    INDEX 01 01:55:29
  TRACK 66 AUDIO
    TITLE "2Q_k_041-050_66"
    INDEX 01 01:57:18
  TRACK 67 AUDIO
    TITLE "2Q_k_041-050_67"
    INDEX 01 01:57:65
  TRACK 68 AUDIO
    TITLE "2Q_k_041-050_68"
    INDEX 01 01:59:39
  TRACK 69 AUDIO
    TITLE "2Q_k_041-050_69"
    INDEX 01 02:00:11
  TRACK 70 AUDIO
    TITLE "2Q_k_041-050_70"
    INDEX 01 02:03:70
  TRACK 71 AUDIO
    TITLE "2Q_k_041-050_71"
    INDEX 01 02:07:56
